<svg id="Layer_1" enable-background="new 0 0 509.407 509.407" height="512" viewBox="0 0 509.407 509.407" width="512" xmlns="http://www.w3.org/2000/svg"><g><path d="m400.52 466.418-77.006-369.63h-137.62l-77.006 369.63c-1.845 8.857 4.916 17.172 13.963 17.172h263.707c9.046 0 15.807-8.315 13.962-17.172z" fill="#e64937"/><path d="m313.953 22.965h-120.223c-7.23 0-12.638 6.637-11.178 13.718l15.194 73.698h111.18l16.174-73.551c1.567-7.121-3.855-13.865-11.147-13.865z" fill="#e64937"/><g id="XMLID_17_"><path d="m283.994 509.407c-13.545 0-24.525-10.98-24.525-24.525v-196.035c0-13.545 10.98-24.525 24.525-24.525s24.525 10.98 24.525 24.525v196.035c0 13.545-10.98 24.525-24.525 24.525z" fill="#373c41"/></g><g id="XMLID_16_"><path d="m224.346 509.407c-13.545 0-24.525-10.98-24.525-24.525v-196.035c0-13.545 10.98-24.525 24.525-24.525s24.525 10.98 24.525 24.525v196.035c0 13.545-10.98 24.525-24.525 24.525z" fill="#50555a"/></g><circle cx="252.85" cy="39.682" fill="#ffb69e" r="39.682"/><g><path d="m317.28 291.36c0 11.288 9.15 20.438 20.438 20.438s20.438-9.15 20.438-20.438l-20.438-14.485z" fill="#ffb69e"/><path d="m309.035 92.984-25.794.025-29.733 19.184-2.185 97.342 2.045 79.326 55.153-.015-.19-154.987h.706c4.282 0 8.201 3.531 8.245 7.419v150.082h40.875v-150.254c-.137-26.534-22.172-48.122-49.122-48.122z" fill="#2b2f33"/></g><g><path d="m150.113 291.36c0 11.288 9.15 20.438 20.438 20.438s20.438-9.15 20.438-20.438l-20.438-18.479z" fill="#ffb69e"/><path d="m199.821 288.847h53.552v-176.66l-29.943-19.178-24.117-.025c-26.996 0-49.067 21.588-49.2 48.124v.103 150.15h40.876v-150.077c.039-3.889 3.998-7.425 8.324-7.425h.507v154.988z" fill="#373c41"/></g><g><path d="m223.428 92.984s6.786 40.543 21.847 51.993l16.185.023c15.082-11.419 21.877-52.016 21.877-52.016z" fill="#fff"/><g fill="#202326"><path d="m261.545 92.984h-16.325c-2.052 0-3.601 1.861-3.229 3.879l2.688 14.56c.287 1.557 1.645 2.687 3.229 2.687h10.948c1.583 0 2.941-1.13 3.229-2.687l2.688-14.56c.373-2.018-1.176-3.879-3.228-3.879z"/><path d="m261.108 119.695c-.248-1.262-1.355-2.172-2.641-2.172h-10.169c-1.286 0-2.393.91-2.641 2.172l-2.652 13.479c-.07.355-.067.72.007 1.074l2.258 10.723c2.478 1.885 5.18 2.985 8.113 2.985s5.635-1.099 8.113-2.985l2.258-10.723c.074-.354.077-.719.007-1.074z"/></g></g><g fill="#fff"><path d="m239.443 63.624 3.256 10.219c.27.849 1.485.809 1.699-.056l2.536-10.236c.18-.728-.37-1.431-1.12-1.431h-5.272c-.781 0-1.336.76-1.099 1.504z"/><path d="m258.106 63.687 3.194 10.027c.27.849 1.485.809 1.699-.056l2.491-10.053c.203-.821-.418-1.614-1.263-1.614h-4.882c-.88-.001-1.506.856-1.239 1.696z"/></g></g></svg>